<?xml version="1.0" ?><svg id="katman_1" style="enable-background:new 0 0 512 512;" version="1.1" viewBox="0 0 512 512" xml:space="preserve" xmlns="http://www.w3.org/2000/svg" xmlns:xlink="http://www.w3.org/1999/xlink"><style type="text/css">
	.st0{fill:#34B297;}
	.st1{fill:#15A085;}
	.st2{fill:#FFFFFF;}
</style><g><g><circle class="st0" cx="256" cy="256" r="250"/></g><path class="st1" d="M497.7,320.2c-0.2-0.4-0.5-0.8-0.9-1.2c-40.9-40.8-81.8-81.7-122.7-122.6c-23.6-23.6-47-47.3-70.8-70.7   c-16.9-16.6-37.4-22.7-60.6-17.7c-31.6,6.8-51.9,35-51.6,64.3c0.2,17.9,0,35.8,0,53.8c0,0.9,0,1.9,0,3.3c-1.2,0-2.1,0-2.9,0   c-6.2,0-12.3,0-18.5,0c-4.4,0-8.5,1.2-12.2,3.7c-6.5,4.5-9.7,10.8-9.7,18.8c0,23.6,0,47.2,0,70.8c0,20.5,0,41,0,61.4   c0,6.4,2,11.9,6.6,16.4c34.9,34.8,69.7,69.7,104.5,104.5c0.4,0.4,0.8,0.7,1.3,1C374.2,504.1,469.7,425.9,497.7,320.2z"/><g><path class="st2" d="M256,268.1c-16.4,0-29.8,13.4-29.8,29.8c0,8.1,3.4,16,9.3,21.6v26.9c0,11.3,9.2,20.5,20.5,20.5    c11.3,0,20.5-9.2,20.5-20.5v-26.9c5.9-5.6,9.3-13.5,9.3-21.6C285.8,281.5,272.4,268.1,256,268.1z M266.5,309.1    c-2.8,2.7-4.5,6.4-4.5,10.3v27c0,3.3-2.7,6.1-6.1,6.1c-3.3,0-6.1-2.7-6.1-6.1v-27c0-3.8-1.6-7.6-4.5-10.3    c-3.1-2.9-4.8-6.9-4.8-11.2c0-8.5,6.9-15.4,15.4-15.4c8.5,0,15.4,6.9,15.4,15.4C271.4,302.2,269.6,306.1,266.5,309.1z"/><path class="st2" d="M343.3,229h-21.6v-57.3c0-36.2-29.5-65.7-65.7-65.7c-36.2,0-65.7,29.5-65.7,65.7V229h-21.6    c-11.9,0-21.6,9.7-21.6,21.6v133.8c0,11.9,9.7,21.6,21.6,21.6h174.6c11.9,0,21.6-9.7,21.6-21.6V250.6    C364.9,238.7,355.2,229,343.3,229z M204.8,171.7c0-28.3,23-51.2,51.2-51.2c28.3,0,51.2,23,51.2,51.2V229H204.8V171.7z     M350.5,384.4c0,4-3.2,7.2-7.2,7.2H168.7c-4,0-7.2-3.2-7.2-7.2V250.6c0-4,3.2-7.2,7.2-7.2h174.6c4,0,7.2,3.2,7.2,7.2L350.5,384.4    L350.5,384.4z"/></g></g></svg>