<svg xmlns="http://www.w3.org/2000/svg" version="1.1" xmlns:xlink="http://www.w3.org/1999/xlink" xmlns:svgjs="http://svgjs.com/svgjs" width="2000" height="1000" preserveAspectRatio="none" viewBox="0 0 2000 1000"><g mask="url(&quot;#SvgjsMask1010&quot;)" fill="none"><rect width="2000" height="1000" x="0" y="0" fill="url(#SvgjsLinearGradient1011)"></rect><path d="M254.03 382.49 a179.83 179.83 0 1 0 359.66 0 a179.83 179.83 0 1 0 -359.66 0z" fill="rgba(157, 229, 255, 0.4)" class="triangle-float3"></path><path d="M1190.52 627.26 a294.73 294.73 0 1 0 589.46 0 a294.73 294.73 0 1 0 -589.46 0z" fill="rgba(157, 229, 255, 0.4)" class="triangle-float3"></path><path d="M1616.82 215.44 a315.41 315.41 0 1 0 630.82 0 a315.41 315.41 0 1 0 -630.82 0z" fill="rgba(157, 229, 255, 0.4)" class="triangle-float2"></path><path d="M138.82 489.27 a203.04 203.04 0 1 0 406.08 0 a203.04 203.04 0 1 0 -406.08 0z" fill="rgba(157, 229, 255, 0.4)" class="triangle-float2"></path><path d="M1035.49 886.39 a172.73 172.73 0 1 0 345.46 0 a172.73 172.73 0 1 0 -345.46 0z" fill="rgba(157, 229, 255, 0.4)" class="triangle-float2"></path><path d="M1000.34 898.83 a198.52 198.52 0 1 0 397.04 0 a198.52 198.52 0 1 0 -397.04 0z" fill="rgba(157, 229, 255, 0.4)" class="triangle-float3"></path><path d="M375.06 460.47 a168.51 168.51 0 1 0 337.02 0 a168.51 168.51 0 1 0 -337.02 0z" fill="rgba(157, 229, 255, 0.4)" class="triangle-float1"></path><path d="M1328.83 246.14 a272.66 272.66 0 1 0 545.32 0 a272.66 272.66 0 1 0 -545.32 0z" fill="rgba(157, 229, 255, 0.4)" class="triangle-float2"></path><path d="M1131.79 519.95 a189.85 189.85 0 1 0 379.7 0 a189.85 189.85 0 1 0 -379.7 0z" fill="rgba(157, 229, 255, 0.4)" class="triangle-float2"></path><path d="M639.94 19.41 a235.21 235.21 0 1 0 470.42 0 a235.21 235.21 0 1 0 -470.42 0z" fill="rgba(157, 229, 255, 0.4)" class="triangle-float3"></path><path d="M-246.05 0.98 a332.27 332.27 0 1 0 664.54 0 a332.27 332.27 0 1 0 -664.54 0z" fill="rgba(157, 229, 255, 0.4)" class="triangle-float1"></path><path d="M227.56 244.6 a216.61 216.61 0 1 0 433.22 0 a216.61 216.61 0 1 0 -433.22 0z" fill="rgba(157, 229, 255, 0.4)" class="triangle-float1"></path><path d="M1017.4 776.32 a264.14 264.14 0 1 0 528.28 0 a264.14 264.14 0 1 0 -528.28 0z" fill="rgba(157, 229, 255, 0.4)" class="triangle-float1"></path><path d="M993.34 154.81 a216.42 216.42 0 1 0 432.84 0 a216.42 216.42 0 1 0 -432.84 0z" fill="rgba(157, 229, 255, 0.4)" class="triangle-float1"></path><path d="M858.46 409.31 a169.36 169.36 0 1 0 338.72 0 a169.36 169.36 0 1 0 -338.72 0z" fill="rgba(157, 229, 255, 0.4)" class="triangle-float1"></path><path d="M1395.1 787.47 a317.98 317.98 0 1 0 635.96 0 a317.98 317.98 0 1 0 -635.96 0z" fill="rgba(157, 229, 255, 0.4)" class="triangle-float2"></path><path d="M1624.72 459.41 a278.18 278.18 0 1 0 556.36 0 a278.18 278.18 0 1 0 -556.36 0z" fill="rgba(157, 229, 255, 0.4)" class="triangle-float3"></path></g><defs><mask id="SvgjsMask1010"><rect width="2000" height="1000" fill="#ffffff"></rect></mask><linearGradient x1="12.5%" y1="-25%" x2="87.5%" y2="125%" gradientUnits="userSpaceOnUse" id="SvgjsLinearGradient1011"><stop stop-color="rgba(238, 255, 238, 1)" offset="0"></stop><stop stop-color="rgba(255, 255, 255, 1)" offset="1"></stop></linearGradient><style>
            @keyframes float1 {
                0%{transform: translate(0, 0)}
                50%{transform: translate(-10px, 0)}
                100%{transform: translate(0, 0)}
            }

            .triangle-float1 {
                animation: float1 5s infinite;
            }

            @keyframes float2 {
                0%{transform: translate(0, 0)}
                50%{transform: translate(-5px, -5px)}
                100%{transform: translate(0, 0)}
            }

            .triangle-float2 {
                animation: float2 4s infinite;
            }

            @keyframes float3 {
                0%{transform: translate(0, 0)}
                50%{transform: translate(0, -10px)}
                100%{transform: translate(0, 0)}
            }

            .triangle-float3 {
                animation: float3 6s infinite;
            }
        </style></defs></svg>